<?xml version="1.0" standalone="no"?>
<!DOCTYPE svg PUBLIC "-//W3C//DTD SVG 20010904//EN"
 "http://www.w3.org/TR/2001/REC-SVG-20010904/DTD/svg10.dtd">
<svg version="1.0" xmlns="http://www.w3.org/2000/svg"
 width="512.000000pt" height="512.000000pt" viewBox="0 0 512.000000 512.000000"
 preserveAspectRatio="xMidYMid meet">
<metadata>
Created by potrace 1.11, written by Peter Selinger 2001-2013
</metadata>
<g transform="translate(0.000000,512.000000) scale(0.100000,-0.100000)"
fill="#000000" stroke="none">
<path d="M790 4713 c-1 -10 0 -98 0 -195 0 -98 -3 -178 -7 -179 -4 0 -93 -1
-198 -2 l-190 -2 0 -195 -1 -195 -194 -1 -195 -1 -3 -591 -2 -592 182 1 c101
0 190 0 198 0 13 -1 15 -29 14 -196 l-1 -195 199 0 198 0 -1 -167 c0 -93 0
-182 0 -199 l1 -30 191 1 c105 0 193 -3 195 -7 3 -4 5 -93 4 -198 l0 -190 198
0 197 0 0 -195 c-1 -189 0 -195 20 -196 11 0 100 -1 198 -1 l177 -1 0 -197 0
-196 191 0 c105 1 194 -1 197 -4 4 -3 7 -90 7 -195 l0 -190 196 -3 197 -2 -2
187 c-1 122 3 190 10 197 7 7 75 11 197 10 l187 -2 0 198 0 197 178 1 c97 0
186 0 197 1 20 1 20 7 20 196 l0 195 197 0 197 0 0 173 c0 94 0 183 1 197 l0
25 195 0 c190 -1 195 -1 195 19 0 12 1 101 1 199 l1 177 197 0 197 0 0 186
c-1 102 2 190 5 195 3 5 92 10 197 10 l192 1 -2 591 -3 591 -192 -1 c-138 -1
-193 2 -194 11 -1 6 -2 94 -3 196 l-1 185 -185 2 c-102 1 -191 2 -197 2 -9 1
-12 34 -12 124 0 67 0 155 0 195 l-1 72 -590 0 -590 0 0 -197 0 -198 -192 1
c-106 1 -195 -2 -198 -6 -3 -5 -5 -96 -4 -204 1 -135 -2 -193 -10 -189 -5 4
-94 7 -196 7 l-185 1 -2 180 c0 99 -2 187 -2 196 -1 14 -23 16 -196 15 l-195
-1 0 198 0 197 -590 0 c-555 0 -590 -1 -590 -17z"/>
</g>
</svg>
